{"title":"War Dogs 2016 READNFO CAM X264 AC3 TiTAN","uid":15669126,"size":733079413,"categoryP":"video","categoryS":"movies","magnet":"?xt=urn:btih:021a361a055f318ee9249de9d051ca76cb8eb610&amp;dn=War+Dogs+2016+READNFO+CAM+X264+AC3+TiTAN+&amp;tr=udp%3A%2F%2Ftracker.leechers-paradise.org%3A6969&amp;tr=udp%3A%2F%2Fzer0day.ch%3A1337&amp;tr=udp%3A%2F%2Fopen.demonii.com%3A1337&amp;tr=udp%3A%2F%2Ftracker.coppersurfer.tk%3A6969&amp;tr=udp%3A%2F%2Fexodus.desync.com%3A6969","seeders":16,"leechers":3,"uploader":"makintos13","files":2,"time":1472224855,"description":"War Dogs 2016 READNFO CAM X264 AC3 TiTAN was uploaded.\r\n\r\n\r\nScreens:\r\n \nhttps://imgmak.com/aME\r\n \nhttps://imgmak.com/aMh\r\n \nhttps://imgmak.com/aMl\r\n \nhttps://imgmak.com/aMV\r\n \nhttps://imgmak.com/aMe\r\n \nhttps://imgmak.com/aMg\r\n\r\n\r\nGeneral\r\n\r\nFormat : Matroska\r\nFormat version : Version 2\r\nFile size : 699 MiB\r\nDuration : 1h 47mn\r\nOverall bit rate mode : Variable\r\nOverall bit rate : 913 Kbps\r\n\r\nVideo\r\nID : 1\r\nFormat : AVC\r\nFormat/Info : Advanced Video Codec\r\nFormat profile :   \r\nFormat settings, CABAC : Yes\r\nFormat settings, ReFrames : 3 frames\r\nCodec ID : V_MPEG4/ISO/AVC\r\nDuration : 1h 47mn\r\nBit rate mode : Variable\r\nBit rate : 767 Kbps\r\nMaximum bit rate : 40.0 Mbps\r\nWidth : 688 pixels\r\nHeight : 272 pixels\r\nDisplay aspect ratio : 2.529\r\nFrame rate mode : Constant\r\nFrame rate : 25.000 fps\r\nColor space : YUV\r\nChroma subsampling : 4:2:0\r\nBit depth : 8 bits\r\nScan type : Progressive\r\nBits/(Pixel*Frame) : 0.164\r\nStream size : 587 MiB (84%)\r\nDefault : Yes\r\nForced : No\r\nColor primaries : BT.709\r\nTransfer characteristics : BT.709\r\nMatrix coefficients : BT.709\r\n\r\nAudio\r\nID : 2\r\nFormat : AC-3\r\nFormat/Info : Audio Coding 3\r\nMode extension : CM (complete main)\r\nFormat settings, Endianness : Big\r\nCodec ID : A_AC3\r\nDuration : 1h 47mn\r\nBit rate mode : Constant\r\nBit rate : 128 Kbps\r\nChannel(s) : 2 channels\r\nChannel positions : Front: L R\r\nSampling rate : 44.1 KHz\r\nBit depth : 16 bits\r\nCompression mode : Lossy\r\nStream size : 98.0 MiB (14%)\r\nLanguage : English\r\nDefault : Yes\r\nForced : No","torrent":{"xt":"urn:btih:021a361a055f318ee9249de9d051ca76cb8eb610","amp;dn":"War+Dogs+2016+READNFO+CAM+X264+AC3+TiTAN+","amp;tr":["udp%3A%2F%2Ftracker.leechers-paradise.org%3A6969","udp%3A%2F%2Fzer0day.ch%3A1337","udp%3A%2F%2Fopen.demonii.com%3A1337","udp%3A%2F%2Ftracker.coppersurfer.tk%3A6969","udp%3A%2F%2Fexodus.desync.com%3A6969"],"infoHash":"021a361a055f318ee9249de9d051ca76cb8eb610","infoHashBuffer":{"type":"Buffer","data":[2,26,54,26,5,95,49,142,233,36,157,233,208,81,202,118,203,142,182,16]},"announce":[],"urlList":[]}}